<svg width="120" height="120" viewBox="0 0 120 120" fill="none" xmlns="http://www.w3.org/2000/svg">
  <path d="M60 20C60 20 40 40 40 60C40 80 60 100 60 100" stroke="#A3B8FF" stroke-width="4" stroke-linecap="round"/>
  <path d="M60 20C60 20 80 40 80 60C80 80 60 100 60 100" stroke="#5B72E2" stroke-width="4" stroke-linecap="round"/>
  <path d="M40 40C40 40 20 50 20 70C20 90 40 100 40 100" stroke="#B7CCFF" stroke-width="4" stroke-linecap="round"/>
  <path d="M80 40C80 40 100 50 100 70C100 90 80 100 80 100" stroke="#C5DBFF" stroke-width="4" stroke-linecap="round"/>
  <circle cx="60" cy="70" r="8" fill="#5B72E2"/>
  <path d="M55 30L65 35M55 50L65 55M35 60L45 65M75 60L85 65" stroke="#A3B8FF" stroke-width="2" stroke-linecap="round"/>
</svg>
